<?xml version="1.0" standalone="no"?>
<!DOCTYPE svg PUBLIC "-//W3C//DTD SVG 20010904//EN"
 "http://www.w3.org/TR/2001/REC-SVG-20010904/DTD/svg10.dtd">
<svg version="1.0" xmlns="http://www.w3.org/2000/svg"
 width="212.000000pt" height="212.000000pt" viewBox="0 0 212.000000 212.000000"
 preserveAspectRatio="xMidYMid meet">
<metadata>
Created by potrace 1.14, written by Peter Selinger 2001-2017
</metadata>
<g transform="translate(0.000000,212.000000) scale(0.100000,-0.100000)"
fill="#000000" stroke="none">
<path d="M1070 1885 l0 -175 -53 0 c-29 0 -86 -9 -127 -21 -226 -62 -397 -233
-459 -459 -27 -97 -28 -239 -3 -331 l19 -66 -36 -13 c-202 -72 -281 -104 -281
-114 0 -6 13 -39 29 -73 98 -207 305 -404 515 -492 227 -94 506 -100 732 -15
138 52 233 113 347 223 141 136 235 303 279 494 25 108 30 306 9 402 -65 308
-255 563 -521 699 -107 55 -189 81 -310 101 -156 25 -140 43 -140 -160z"/>
</g>
</svg>
